<?xml version="1.0" ?><svg data-name="Layer 2" id="Layer_2" viewBox="0 0 512 512" xmlns="http://www.w3.org/2000/svg"><title/><path d="M256,8a248.0675,248.0675,0,0,1,96.53,476.5142A248.0663,248.0663,0,0,1,159.47,27.4858,246.4381,246.4381,0,0,1,256,8m0-8C114.6151,0,0,114.615,0,256S114.6151,512,256,512,512,397.385,512,256,397.3849,0,256,0Z"/><path d="M310.37,225.1309a29.5385,29.5385,0,0,1-20.9511-8.6641l-31.2632-31.2632a3.1214,3.1214,0,0,0-4.3106,0L222.582,216.4668a29.6655,29.6655,0,0,1-41.9033,0h0a29.6313,29.6313,0,0,1,0-41.9038l54.37-54.37a29.63,29.63,0,0,1,41.9034.0005l54.37,54.37A29.616,29.616,0,0,1,310.37,225.1309ZM256,176.3105a10.9778,10.9778,0,0,1,7.8125,3.2359L295.0752,210.81A21.63,21.63,0,1,0,325.6646,180.22l-54.37-54.37a21.6293,21.6293,0,0,0-30.5888-.0005l-54.37,54.3706a21.63,21.63,0,1,0,30.59,30.5894l31.2622-31.2632A10.9778,10.9778,0,0,1,256,176.3105Z"/><path d="M256,304.4854a36,36,0,1,1,36-36A36.0407,36.0407,0,0,1,256,304.4854Zm0-64a28,28,0,1,0,28,28A28.0314,28.0314,0,0,0,256,240.4854Z"/><path d="M256,400.4854a36,36,0,1,1,36-36A36.0407,36.0407,0,0,1,256,400.4854Zm0-64a28,28,0,1,0,28,28A28.0314,28.0314,0,0,0,256,336.4854Z"/></svg>